<?xml version="1.0" encoding="utf-8"?>
<!-- Generator: Adobe Illustrator 17.0.0, SVG Export Plug-In . SVG Version: 6.00 Build 0)  -->
<!DOCTYPE svg PUBLIC "-//W3C//DTD SVG 1.1//EN" "http://www.w3.org/Graphics/SVG/1.1/DTD/svg11.dtd">
<svg version="1.1" id="Layer_1" xmlns="http://www.w3.org/2000/svg" xmlns:xlink="http://www.w3.org/1999/xlink" x="0px" y="0px"
	 width="80px" height="80px" viewBox="0 0 1200 1200" enable-background="new 0 0 1200 1200" xml:space="preserve">
<g>
	<path fill="#282727" d="M600.003,55.484C296.298,55.484,50,299.257,50,600.003s246.298,544.514,550.003,544.514
		c303.767,0,549.997-243.768,549.997-544.514S903.769,55.484,600.003,55.484z M600.003,1076.921
		c-265.515,0-481.537-213.94-481.537-476.918s216.022-476.924,481.537-476.924s481.519,213.946,481.519,476.924
		S865.517,1076.921,600.003,1076.921z"/>
	<path fill="#282727" d="M639.872,636.726V757.96c8.995-3.799,16.836-9.506,23.68-17.215c11.426-12.806,16.966-28.436,16.966-47.782
		c0-16.07-3.644-28.293-11.134-37.325C665.41,650.819,657.105,644.136,639.872,636.726z"/>
	<path fill="#282727" d="M600.003,161.704c-244.221,0-442.905,196.626-442.905,438.299c0,241.68,198.684,438.293,442.905,438.293
		c244.217,0,442.894-196.612,442.894-438.293C1042.897,358.33,844.219,161.704,600.003,161.704z M730.918,797.17
		c-24.116,25.078-54.696,40.185-91.046,45.022v57.431H572.14v-57.679c-23.195-3.955-42.94-10.034-58.855-18.129
		c-20.18-10.244-37.754-26.806-52.209-49.225c-14.28-22.299-22.697-49.529-24.985-80.992l-1.126-15.492l89.349-16.575l2.624,17.806
		c3.916,26.527,10.468,45.8,19.502,57.275c7.789,9.711,16.307,16.717,25.701,21.106V618.082
		c-20.329-5.253-41.025-13.684-61.734-25.166c-20.64-11.358-36.822-27.392-48.037-47.633
		c-11.054-19.881-16.648-42.679-16.648-67.714c0-44.42,16.263-80.986,48.348-108.714c18.694-16.213,44.923-27.043,78.072-32.264
		v-28.485h67.732v28.516c28.865,4.794,52.774,14.889,71.258,30.127c27.776,22.779,44.742,54.279,50.368,93.595l2.425,17.097
		l-92.121,13.677l-2.624-17.065c-2.81-18.248-8.331-32.03-16.412-40.945c-3.643-4.016-7.921-7.391-12.894-10.177V544.53
		c22.331,5.732,36.941,10.209,45.513,13.87c19.385,8.411,35.529,18.917,48.037,31.251c12.714,12.521,22.58,27.573,29.332,44.706
		c6.701,16.916,10.102,35.398,10.102,54.913C772.856,732.074,758.75,768.379,730.918,797.17z"/>
	<path fill="#282727" d="M536.504,473.236c0,14.783,3.911,26.62,11.937,36.157c5.229,6.211,13.154,11.794,23.699,16.717V420.511
		c-8.443,3.531-15.474,8.467-21.256,14.895C541.198,446.118,536.504,458.477,536.504,473.236z"/>
</g>
</svg>
